<svg width="161" height="18" viewBox="0 0 161 18" fill="none" xmlns="http://www.w3.org/2000/svg">
<path d="M11.3758 1.49869C11.5886 1.49869 11.6963 1.54069 11.6963 1.8399V5.38846C11.6963 5.58006 11.5676 5.64305 11.4415 5.64305C11.2918 5.64305 11.121 5.53806 11.121 5.36746C11.121 4.04987 10.207 2.15749 8.07943 2.15749H7.12335C6.29334 2.15749 5.46333 2.26247 5.1245 2.64567V8.89239H7.18638C8.12145 8.89239 9.26928 8.57481 9.52668 6.83203C9.56871 6.57743 9.71843 6.44882 9.82349 6.44882C9.93118 6.44882 10.0152 6.55381 10.0152 6.76641C10.0152 7.48819 9.86552 8.042 9.86552 9.31759C9.86552 10.7402 10.0152 11.1444 10.0152 11.6562C10.0152 11.8688 9.93118 11.9738 9.82349 11.9738C9.7158 11.9738 9.56871 11.8451 9.52668 11.5906C9.2719 9.95539 8.1661 9.61418 7.18638 9.61418H5.1245V11.8451C5.1245 13.3543 5.18754 15.0971 5.25058 15.6903C5.35827 16.6247 5.76014 17.1155 8.05842 17.1155C9.86552 17.1155 11.5255 15.6483 12.2058 13.3543C12.2689 13.1207 12.4186 13.0131 12.5473 13.0131C12.697 13.0131 12.8021 13.1181 12.8021 13.2887C12.8021 13.6719 11.951 16.9659 11.825 17.3701C11.7619 17.6037 11.5492 17.7533 11.3154 17.7533H0.320446C0.107691 17.7533 0 17.6247 0 17.4987C0 17.3491 0.128704 17.1811 0.404497 17.1811C2.06451 17.1811 2.38233 16.6719 2.48739 15.4173C2.52942 14.8215 2.6161 13.3123 2.6161 10.3806V8.97901C2.6161 6.06825 2.53204 4.34646 2.48739 3.75066C2.3797 2.51707 2.10391 2.07087 0.509559 2.07087C0.254779 2.07087 0.126076 1.92126 0.126076 1.77428C0.126076 1.64567 0.23114 1.49869 0.443894 1.49869H11.3758Z" fill="#1E1E32"/>
<path d="M19.4369 17.2257C20.7134 17.2257 20.9682 16.6719 21.0732 15.4199C21.1153 14.8241 21.1993 13.3596 21.1993 11.9344V10.4672C21.1993 7.81102 21.1363 6.15223 19.9018 6.15223H19.3475C19.1348 6.15223 19.0507 6.04724 19.0507 5.93963C19.0507 5.83464 19.1138 5.70603 19.3475 5.64304C20.2196 5.40945 22.1554 5.04724 22.749 5.04724C23.2165 5.04724 23.558 5.34383 23.558 6.08924C23.558 6.83202 23.4739 8.3622 23.4739 11.0184V11.9318C23.4739 13.357 23.516 14.8215 23.6026 15.4173C23.7734 16.6929 23.8154 17.2231 25.134 17.2231C25.4097 17.2231 25.5385 17.3517 25.5385 17.4987C25.5385 17.6273 25.4308 17.7533 25.2206 17.7533H13.2249C13.0122 17.7533 12.9045 17.6247 12.9045 17.4987C12.9045 17.3491 13.0332 17.2021 13.288 17.2021C14.4778 17.2021 14.8193 16.8189 14.9244 15.5669C14.9664 14.9711 15.0531 13.357 15.0531 11.9318V4.43044C15.0531 2.22047 14.9033 1.66666 13.6715 1.66666H13.1409C12.9281 1.66666 12.7994 1.58268 12.7994 1.47506C12.7994 1.36745 12.9045 1.26246 13.1409 1.19947C14.0339 0.965877 15.9908 0.349079 16.587 0.349079C17.0545 0.349079 17.396 0.645667 17.396 1.39107V11.9318C17.396 13.357 17.417 14.9711 17.501 15.5669C17.6718 16.8425 17.7979 17.2021 19.0534 17.2021M22.2211 0.223095C23.0721 0.223095 23.7734 0.923882 23.7734 1.77428C23.7734 2.60367 23.0721 3.30446 22.2211 3.30446C21.391 3.30446 20.6897 2.60367 20.6897 1.77428C20.6897 0.923882 21.3937 0.223095 22.2211 0.223095Z" fill="#1E1E32"/>
<path d="M33.237 17.9685C31.3879 17.9685 29.3444 17.4383 28.0258 17.4383C26.9831 17.4383 26.836 17.8845 26.4525 17.8845C26.2187 17.8845 26.09 17.7795 26.09 17.6089C26.09 17.4593 26.1321 17.3753 26.3028 17.1837C29.4941 13.7612 32.3203 9.8084 33.8306 7.25984C32.8956 7.45144 32.1706 7.53543 31.598 7.53543C30.5342 7.53543 29.917 7.38583 29.1106 7.38583C28.1335 7.38583 27.5583 7.61942 27.2825 8.7874C27.2615 8.93701 27.0908 9.021 26.9647 9.021C26.836 9.021 26.7519 8.91601 26.7519 8.74541C26.7519 7.64042 27.4743 5.13386 28.454 5.13386C29.305 5.13386 30.2191 5.36745 32.5804 5.36745C35.3882 5.36745 35.4512 4.90026 36.0475 4.90026C36.1525 4.90026 36.2392 4.96325 36.2392 5.07086C36.2392 5.11286 36.1972 5.26247 36.1105 5.41207C34.876 7.89764 30.3057 13.8924 28.5196 15.6982C29.0292 15.5066 29.5624 15.4436 30.0299 15.4436C31.1988 15.4436 32.3913 15.6562 33.2423 15.6562C34.6029 15.6562 35.4329 15.6142 35.6666 14.2336C35.6876 14.021 35.7953 13.937 35.9004 13.937C36.0265 13.937 36.1342 14.0656 36.1342 14.2992C36.1315 17.4383 34.4925 17.9685 33.237 17.9685Z" fill="#1E1E32"/>
<path d="M43.6804 9.8294C43.6804 7.17323 43.1498 5.43045 41.3847 5.43045C40.0242 5.43045 39.6617 6.70604 39.6617 7.74803C39.6617 8.11024 39.7037 8.44882 39.7694 8.70341C39.4936 8.76641 39.2598 8.7874 39.0471 8.7874C38.0253 8.7874 37.4947 8.1706 37.4947 7.29921C37.4947 5.79003 39.2388 4.79265 41.9179 4.79265C44.4263 4.79265 46.0653 5.70604 46.0653 8.32021C46.0653 9.08661 45.9366 11.084 45.9366 14.2493C45.9366 15.8635 45.9366 16.6089 46.7877 16.6089C47.5756 16.6089 47.5966 15.5879 47.8935 15.5879C48.0432 15.5879 48.0852 15.6929 48.0852 15.9291C48.0852 16.9291 47.4259 17.9685 45.8736 17.9685C44.5761 17.9685 43.9378 17.1811 43.662 16.5013C42.79 17.4357 41.5345 17.9685 40.3236 17.9685C38.4298 17.9685 37.0272 16.9055 37.0272 15.0787C37.0272 11.8924 40.1318 11.189 42.7059 11.189C43.0474 11.189 43.3652 11.21 43.683 11.231V9.8294H43.6804ZM41.5765 16.5669C42.3198 16.5669 42.895 16.4173 43.5753 15.9291C43.6804 15.2283 43.6804 12.9764 43.6804 11.8478H43.2129C41.0643 11.8478 39.512 12.6982 39.512 14.6535C39.512 15.9291 40.321 16.5669 41.5765 16.5669Z" fill="#1E1E32"/>
<path d="M51.2529 7.21522C52.4217 5.87664 53.5275 4.79265 55.2926 4.79265C58.547 4.79265 59.6738 7.79003 59.6738 10.8268C59.6738 15.0341 57.0787 17.9659 53.144 17.9659C51.5287 17.9659 49.9553 17.6247 49.2961 17.0945C48.8285 16.7113 48.7865 16.2441 48.7865 15.7769C48.7865 15.1811 48.9362 13.2703 48.9362 9.78478V4.43045C48.9362 2.22047 48.7865 1.66667 47.5546 1.66667H47.0241C46.8113 1.66667 46.6826 1.58268 46.6826 1.47507C46.6826 1.36746 46.7903 1.26247 47.0241 1.19948C47.9171 0.965881 49.8739 0.349083 50.4701 0.349083C50.9377 0.349083 51.2792 0.645671 51.2792 1.39108L51.2529 7.21522ZM51.2739 14.8241C51.2739 16.0577 52.0619 17.1181 53.6142 17.1181C56.0175 17.1181 57.1864 14.5669 57.1864 11.4226C57.1864 8.85039 56.6558 6.34383 54.3996 6.34383C53.3778 6.34383 52.1249 7.21523 51.2529 8.06562L51.2739 14.8241Z" fill="#1E1E32"/>
<path d="M65.9277 17.9685C62.76 17.9685 60.5248 15.9291 60.5248 11.7638C60.5248 7.83202 62.4606 4.79265 66.3742 4.79265C68.1393 4.79265 70.4586 5.74803 70.4586 8.93701C70.4586 9.70079 70.0751 9.979 69.1611 9.979H63.0148C63.0148 14.0157 64.4831 16.3333 66.8207 16.3333C68.268 16.3333 69.2661 15.8871 70.0541 14.252C70.1171 14.1234 70.2038 14.0814 70.2879 14.0814C70.4166 14.0814 70.4586 14.1864 70.4586 14.336C70.456 15.6509 69.1794 17.9685 65.9277 17.9685ZM63.0542 9.4252L66.9678 9.14961C67.6691 9.10761 67.7978 8.83202 67.7978 8.36221C67.7978 6.40683 67.1806 5.47244 65.9487 5.47244C64.16 5.47244 63.3116 7.34383 63.0542 9.4252Z" fill="#1E1E32"/>
<path d="M74.3906 5.17586C75.2837 5.17586 76.5392 5.00525 77.2405 5.00525C77.603 5.00525 77.8157 5.23885 77.8157 5.47244C77.8157 5.70604 77.603 5.93963 77.1144 5.93963H74.3932V14.9081C74.3932 16.2047 74.7978 16.6929 75.5831 16.6929C76.4341 16.6929 77.0304 16.0341 77.1775 15.1207C77.2195 14.8871 77.3482 14.7585 77.4532 14.7585C77.5793 14.7585 77.708 14.9081 77.708 15.1627C77.708 17.0761 76.3685 17.9895 74.9002 17.9895C72.8173 17.9895 71.8796 16.9475 71.8796 15.0367C71.8796 12.8688 72.0293 8.00263 72.0293 5.96326H70.9865C70.8158 5.96326 70.7318 5.90026 70.7318 5.77166C70.7318 5.66404 70.7948 5.55906 70.9655 5.38845L73.6657 2.73229C73.8574 2.56168 73.9835 2.4567 74.1122 2.4567C74.2829 2.4567 74.388 2.5853 74.388 2.88189V5.17586H74.3906Z" fill="#1E1E32"/>
<path d="M82.7905 6.83202C84.1511 5.68504 85.2569 4.79265 86.7882 4.79265C88.5533 4.79265 89.596 6.15223 89.596 7.979V15.5669C89.596 16.8425 90.0005 17.2021 91.1483 17.2021C91.4031 17.2021 91.5318 17.3517 91.5318 17.4987C91.5318 17.6273 91.4268 17.7533 91.214 17.7533H85.4512C85.2385 17.7533 85.1334 17.6247 85.1334 17.4987C85.1334 17.3491 85.2595 17.2021 85.5169 17.2021C86.7724 17.2021 87.1533 16.4383 87.1533 11.4436C87.1533 6.98163 86.494 6.27822 85.4302 6.27822C84.4741 6.27822 83.6231 7.06562 82.1128 8.25459V11.9318C82.1128 13.357 82.1338 14.9711 82.2179 15.5669C82.3886 16.8425 82.5147 17.2021 83.7702 17.2021C84.025 17.2021 84.1537 17.3517 84.1537 17.4987C84.1537 17.6273 84.046 17.7533 83.8333 17.7533H77.9418C77.729 17.7533 77.6213 17.6247 77.6213 17.4987C77.6213 17.3491 77.75 17.2021 78.0048 17.2021C79.1947 17.2021 79.5361 16.8189 79.6412 15.5669C79.6832 14.9711 79.7699 13.357 79.7699 11.9318V4.43045C79.7699 2.22047 79.6202 1.66667 78.3883 1.66667H77.8577C77.645 1.66667 77.5163 1.58268 77.5163 1.47507C77.5163 1.36746 77.6213 1.26247 77.8577 1.19948C78.7508 0.965881 80.7076 0.349083 81.3038 0.349083C81.7714 0.349083 82.1128 0.645671 82.1128 1.39108V7.4042L82.7905 6.83202Z" fill="#1E1E32"/>
<path d="M101.825 6.53543C101.825 7.70341 100.911 8.14961 99.7846 8.14961C99.7846 7.51181 99.7006 5.43045 97.8488 5.43045C96.764 5.43045 96.1257 6.25984 96.1257 7.15223C96.1257 8.27822 96.5723 8.7874 98.4424 9.95801C100.804 11.4252 102.29 12.2966 102.29 14.4856C102.29 16.9921 99.6113 17.9711 97.313 17.9711C95.0594 17.9711 93.465 17.1627 93.465 15.6982C93.465 14.4856 94.5078 14.0394 95.7843 14.0394C95.7002 14.3806 95.6346 14.7822 95.6346 15.294C95.6346 16.2703 95.976 17.3333 97.5914 17.3333C98.931 17.3333 100.144 16.6535 100.144 15.1444C100.144 14.168 99.6139 13.3176 97.2105 11.9344C95.5295 10.979 93.9772 10.063 93.9772 8.00263C93.9772 5.58005 96.3805 4.79265 98.3163 4.79265C99.7426 4.79265 101.825 5.08924 101.825 6.53543Z" fill="#1E1E32"/>
<path d="M92.6114 1.00263C92.7821 1.00263 92.9528 1 93.1209 1.00263C93.4808 1.00525 93.6147 1.11549 93.578 1.4672C93.5123 2.07087 93.4335 2.67455 93.3074 3.26772C93.1157 4.18636 92.8399 5.08662 92.396 5.92126C92.304 6.09187 92.2016 6.2756 92.0545 6.39633C91.9389 6.49344 91.7551 6.54069 91.6001 6.54331C91.4399 6.54856 91.348 6.45145 91.4163 6.2546C91.8969 4.85827 91.8838 3.42783 91.7157 1.98426C91.692 1.77953 91.6763 1.57481 91.6684 1.37008C91.6605 1.11287 91.7551 1.01313 92.0177 1.00525C92.2174 0.99738 92.4144 1.00263 92.6114 1.00263Z" fill="#1E1E32"/>
<path d="M111.163 16.9265C112.503 16.9265 114.417 16.2887 114.417 14.0367C114.417 10.9554 107.102 9.85039 107.102 5.21785C107.102 2.05249 109.655 0.968503 112.227 0.968503C113.503 0.968503 114.78 1.24409 115.736 1.64829C115.886 1.73228 115.97 1.83989 115.97 2.07349V5.53806C115.97 5.75066 115.82 5.87926 115.652 5.87926C115.481 5.87926 115.31 5.75066 115.31 5.49606C115.289 3.4147 113.737 1.7979 111.909 1.7979C110.336 1.7979 109.401 2.6063 109.401 4.41207C109.401 8.08924 116.503 8.74803 116.503 12.9974C116.503 16.5249 113.908 17.7585 111.166 17.7585C109.847 17.7585 108.466 17.4619 107.36 17.0157C107.147 16.9318 107.105 16.7192 107.084 16.378C107.042 15.7402 106.829 13.105 106.829 12.9134C106.829 12.6798 106.979 12.5958 107.105 12.5958C107.231 12.5958 107.36 12.6588 107.423 12.8504C108.292 15.5879 109.314 16.9265 111.163 16.9265Z" fill="#1E1E32"/>
<path d="M143.98 17.5433H131.538C131.325 17.5433 131.22 17.4147 131.22 17.2887C131.22 17.1391 131.348 16.9921 131.603 16.9921C132.859 16.9921 133.24 16.2283 133.24 11.2336C133.24 6.77165 132.622 6.15485 131.645 6.15485C130.752 6.15485 130.051 6.85564 128.541 8.04724V15.357C128.541 16.6325 128.945 16.9921 130.093 16.9921C130.348 16.9921 130.476 17.1417 130.476 17.2887C130.476 17.4173 130.371 17.5433 130.159 17.5433H124.396C124.183 17.5433 124.078 17.4147 124.078 17.2887C124.078 17.1391 124.207 16.9921 124.462 16.9921C125.717 16.9921 126.098 16.2283 126.098 11.2336C126.098 6.77165 125.481 6.15485 124.504 6.15485C123.611 6.15485 122.909 6.85564 121.399 8.04724C121.378 8.74803 121.378 9.79003 121.378 10.811V11.7244C121.378 13.1496 121.42 14.6562 121.507 15.252C121.677 16.5276 121.719 16.9947 123.038 16.9947C123.314 16.9947 123.442 17.1444 123.442 17.2913C123.442 17.4199 123.335 17.5459 123.125 17.5459H117.275C117.062 17.5459 116.957 17.4173 116.957 17.2913C116.957 17.1417 117.086 16.9947 117.341 16.9947C119.106 16.9738 119.106 15.8898 119.106 11.7244V10.7034C119.106 8.04724 119.085 5.96325 117.724 5.96325H117.128C116.915 5.96325 116.852 5.85827 116.852 5.75066C116.852 5.32546 119.915 4.83727 120.658 4.83727C121.126 4.83727 121.467 5.13386 121.467 5.87926C121.467 6.13386 121.467 6.70866 121.446 7.15485L122.084 6.62467C123.445 5.47769 124.296 4.5853 125.827 4.5853C127.401 4.5853 128.315 5.69029 128.507 7.22047L129.229 6.62467C130.61 5.49869 131.44 4.5853 132.972 4.5853C134.737 4.5853 135.693 5.94488 135.693 7.77165V15.3596C135.693 16.6352 136.097 16.9947 137.245 16.9947L137.841 17.0157C139.118 17.0157 139.373 16.4619 139.478 15.21C139.52 14.6142 139.607 13.1496 139.607 11.7244V10.2572C139.607 7.60105 139.543 5.94226 138.309 5.94226H137.757C137.545 5.94226 137.461 5.83727 137.461 5.72966C137.461 5.62467 137.524 5.49606 137.757 5.43307C138.629 5.19947 140.565 4.83727 141.159 4.83727C141.626 4.83727 141.968 5.13386 141.968 5.87926C141.968 6.62205 141.884 8.15223 141.884 10.8084V11.7218C141.884 13.147 141.926 14.6115 142.012 15.2073C142.183 16.4829 142.225 17.0131 143.544 17.0131L144.053 16.9921L143.98 17.5433ZM140.62 0.010498C141.471 0.010498 142.173 0.711286 142.173 1.56168C142.173 2.39108 141.471 3.09186 140.62 3.09186C139.79 3.09186 139.089 2.39108 139.089 1.56168C139.089 0.711286 139.79 0.010498 140.62 0.010498Z" fill="#1E1E32"/>
<path d="M144.043 16.9921C145.233 16.9921 145.574 16.6089 145.679 15.357C145.721 14.7612 145.808 13.147 145.808 11.7218V4.21785C145.808 2.00788 145.658 1.45407 144.426 1.45407H143.896C143.683 1.45407 143.554 1.37008 143.554 1.26247C143.554 1.15486 143.659 1.04987 143.896 0.98688C144.789 0.753284 146.746 0.136486 147.342 0.136486C147.809 0.136486 148.151 0.433074 148.151 1.17848V11.7192C148.151 13.1444 148.172 14.7585 148.256 15.3543C148.427 16.6299 148.553 16.9895 149.808 16.9895C150.063 16.9895 150.192 17.1391 150.192 17.2861C150.192 17.4147 150.084 17.5407 149.871 17.5407H143.98" fill="#1E1E32"/>
<path d="M155.613 17.7559C152.445 17.7559 150.21 15.7165 150.21 11.5512C150.21 7.61943 152.146 4.58006 156.06 4.58006C157.825 4.58006 160.144 5.53544 160.144 8.72441C160.144 9.48819 159.76 9.76641 158.846 9.76641H152.7C152.7 13.8032 154.168 16.1207 156.506 16.1207C157.953 16.1207 158.951 15.6745 159.739 14.0394C159.802 13.9108 159.889 13.8688 159.973 13.8688C160.102 13.8688 160.144 13.9738 160.144 14.1234C160.144 15.4383 158.867 17.7559 155.613 17.7559ZM152.742 9.2126L156.656 8.93701C157.357 8.89502 157.486 8.61943 157.486 8.14961C157.486 6.19423 156.869 5.25984 155.637 5.25984C153.848 5.25984 152.997 7.13124 152.742 9.2126Z" fill="#1E1E32"/>
</svg>
