<svg width="48" height="48" viewBox="0 0 48 48" fill="none" xmlns="http://www.w3.org/2000/svg">
<path d="M37.5291 39.106C31.7845 38.8037 26.4528 34.8481 24.6843 29.3974C24.4733 28.7711 24.309 28.1325 24.1915 27.4886C24.1379 27.1951 24.5615 27.0899 24.6566 27.3726C25.4014 29.5905 28.4046 35.1669 35.7324 35.1669C42.64 35.1669 48 29.6465 48 23.3409C48 10.8939 37.0699 -0.184367 23.6583 0.0023262C10.7316 0.182195 0.18225 10.7316 0.00238113 23.6582C-0.184312 37.0694 10.6312 47.9999 24 47.9999C31.5881 47.9999 38.3534 44.4781 42.7516 38.9802C42.8979 38.7974 42.7253 38.5361 42.5001 38.599C40.9193 39.0372 39.2474 39.2239 37.5291 39.106Z" fill="white"/>
</svg>
