<svg width="28" height="28" viewBox="0 0 28 28" fill="none" xmlns="http://www.w3.org/2000/svg">
<path d="M27.3329 20.56V24.56C27.3344 24.9314 27.2584 25.2989 27.1096 25.6392C26.9608 25.9794 26.7427 26.2848 26.469 26.5358C26.1954 26.7869 25.8724 26.978 25.5206 27.097C25.1688 27.2159 24.7961 27.2601 24.4263 27.2267C20.3234 26.7809 16.3823 25.3789 12.9196 23.1334C9.69802 21.0862 6.9667 18.3549 4.91959 15.1334C2.66622 11.655 1.26391 7.69469 0.826252 3.57336C0.792933 3.20465 0.836752 2.83304 0.954919 2.48219C1.07309 2.13135 1.26301 1.80895 1.51261 1.53552C1.7622 1.2621 2.06599 1.04364 2.40464 0.894057C2.74329 0.744474 3.10937 0.667043 3.47959 0.666694H7.47959C8.12666 0.660326 8.75397 0.889466 9.2446 1.3114C9.73523 1.73334 10.0557 2.31929 10.1463 2.96003C10.3151 4.24012 10.6282 5.497 11.0796 6.70669C11.259 7.18393 11.2978 7.70258 11.1915 8.2012C11.0851 8.69982 10.8381 9.15751 10.4796 9.52003L8.78625 11.2134C10.6843 14.5514 13.4482 17.3153 16.7863 19.2134L18.4796 17.52C18.8421 17.1615 19.2998 16.9145 19.7984 16.8082C20.297 16.7018 20.8157 16.7406 21.2929 16.92C22.5026 17.3714 23.7595 17.6845 25.0396 17.8534C25.6873 17.9447 26.2788 18.271 26.7016 18.77C27.1245 19.2691 27.3491 19.9061 27.3329 20.56Z" fill="#D4CED2"/>
</svg>
