<svg width="32" height="32" viewBox="0 0 32 32" fill="none" xmlns="http://www.w3.org/2000/svg">
<g clip-path="url(#clip0_3282_10736)">
<path d="M15.334 10.6667H10.6673C10.3137 10.6667 9.97456 10.8072 9.72451 11.0572C9.47446 11.3073 9.33398 11.6464 9.33398 12V21.3334C9.33398 21.687 9.47446 22.0261 9.72451 22.2762C9.97456 22.5262 10.3137 22.6667 10.6673 22.6667H20.0007C20.3543 22.6667 20.6934 22.5262 20.9435 22.2762C21.1935 22.0261 21.334 21.687 21.334 21.3334V16.6667" stroke="#1E1E32" stroke-width="1.5" stroke-linecap="round" stroke-linejoin="round"/>
<path d="M20.334 9.66665C20.5992 9.40144 20.9589 9.25244 21.334 9.25244C21.7091 9.25244 22.0688 9.40144 22.334 9.66665C22.5992 9.93187 22.7482 10.2916 22.7482 10.6667C22.7482 11.0417 22.5992 11.4014 22.334 11.6667L16.0007 18L13.334 18.6667L14.0007 16L20.334 9.66665Z" stroke="#1E1E32" stroke-width="1.5" stroke-linecap="round" stroke-linejoin="round"/>
</g>
<defs>
<clipPath id="clip0_3282_10736">
<rect width="16" height="16" fill="white" transform="translate(8 8)"/>
</clipPath>
</defs>
</svg>
