<svg width="16" height="17" viewBox="0 0 16 17" fill="none" xmlns="http://www.w3.org/2000/svg">
<g clip-path="url(#clip0_2562_9144)">
<path d="M11.9603 12.4603C10.8207 13.329 9.43306 13.8103 8.00033 13.8337C3.33366 13.8337 0.666992 8.50034 0.666992 8.50034C1.49625 6.95494 2.64642 5.60475 4.04033 4.54034M6.60033 3.32701C7.05921 3.2196 7.52904 3.1659 8.00033 3.16701C12.667 3.16701 15.3337 8.50034 15.3337 8.50034C14.929 9.25741 14.4464 9.97017 13.8937 10.627M9.41366 9.91368C9.23056 10.1102 9.00976 10.2678 8.76443 10.3771C8.5191 10.4864 8.25426 10.5452 7.98572 10.5499C7.71718 10.5547 7.45043 10.5053 7.2014 10.4047C6.95236 10.3041 6.72614 10.1544 6.53622 9.96444C6.34631 9.77453 6.19659 9.5483 6.096 9.29927C5.99541 9.05023 5.94601 8.78349 5.95075 8.51495C5.95549 8.24641 6.01426 7.98157 6.12358 7.73624C6.23289 7.49091 6.39049 7.27011 6.58699 7.08701" stroke="#1E1E32" stroke-width="1.5" stroke-linecap="round" stroke-linejoin="round"/>
<path d="M0.666992 1.16699L15.3337 15.8337" stroke="#1E1E32" stroke-width="1.5" stroke-linecap="round" stroke-linejoin="round"/>
</g>
<defs>
<clipPath id="clip0_2562_9144">
<rect width="16" height="16" fill="white" transform="translate(0 0.5)"/>
</clipPath>
</defs>
</svg>
