<svg width="17" height="16" viewBox="0 0 17 16" fill="none" xmlns="http://www.w3.org/2000/svg">
<g clip-path="url(#clip0_5077_9500)">
<path d="M14.5 6.66669C14.5 11.3334 8.5 15.3334 8.5 15.3334C8.5 15.3334 2.5 11.3334 2.5 6.66669C2.5 5.07539 3.13214 3.54926 4.25736 2.42405C5.38258 1.29883 6.9087 0.666687 8.5 0.666687C10.0913 0.666687 11.6174 1.29883 12.7426 2.42405C13.8679 3.54926 14.5 5.07539 14.5 6.66669Z" stroke="white" stroke-width="1.5" stroke-linecap="round" stroke-linejoin="round"/>
<path d="M8.5 8.66669C9.60457 8.66669 10.5 7.77126 10.5 6.66669C10.5 5.56212 9.60457 4.66669 8.5 4.66669C7.39543 4.66669 6.5 5.56212 6.5 6.66669C6.5 7.77126 7.39543 8.66669 8.5 8.66669Z" stroke="white" stroke-width="1.5" stroke-linecap="round" stroke-linejoin="round"/>
</g>
<defs>
<clipPath id="clip0_5077_9500">
<rect width="16" height="16" fill="white" transform="translate(0.5)"/>
</clipPath>
</defs>
</svg>
