<svg width="296" height="88" viewBox="0 0 296 88" fill="none" xmlns="http://www.w3.org/2000/svg">
<path d="M160 41.3333C160 50.6666 148 58.6666 148 58.6666C148 58.6666 136 50.6666 136 41.3333C136 38.1507 137.264 35.0985 139.515 32.848C141.765 30.5976 144.817 29.3333 148 29.3333C151.183 29.3333 154.235 30.5976 156.485 32.848C158.736 35.0985 160 38.1507 160 41.3333Z" fill="#D4CED2"/>
<path d="M148 45.3333C150.209 45.3333 152 43.5425 152 41.3333C152 39.1242 150.209 37.3333 148 37.3333C145.791 37.3333 144 39.1242 144 41.3333C144 43.5425 145.791 45.3333 148 45.3333Z" stroke="white" stroke-width="2" stroke-linecap="round" stroke-linejoin="round"/>
<line x1="116" y1="59.5" x2="180" y2="59.5" stroke="#D4CED2"/>
</svg>
