<svg width="80" height="80" viewBox="0 0 80 80" fill="none" xmlns="http://www.w3.org/2000/svg">
<g filter="url(#filter0_d_5640_17151)">
<rect x="8" y="4" width="64" height="64" rx="32" fill="#ECE9EB"/>
<path d="M56 62V58C56 55.8783 55.1571 53.8434 53.6569 52.3431C52.1566 50.8429 50.1217 50 48 50H32C29.8783 50 27.8434 50.8429 26.3431 52.3431C24.8429 53.8434 24 55.8783 24 58V62" stroke="#D4CED2" stroke-width="2" stroke-linecap="round" stroke-linejoin="round"/>
<path d="M40 42C44.4183 42 48 38.4183 48 34C48 29.5817 44.4183 26 40 26C35.5817 26 32 29.5817 32 34C32 38.4183 35.5817 42 40 42Z" stroke="#D4CED2" stroke-width="2" stroke-linecap="round" stroke-linejoin="round"/>
<rect x="9.5" y="5.5" width="61" height="61" rx="30.5" stroke="white" stroke-width="3"/>
</g>
<defs>
<filter id="filter0_d_5640_17151" x="0" y="0" width="80" height="80" filterUnits="userSpaceOnUse" color-interpolation-filters="sRGB">
<feFlood flood-opacity="0" result="BackgroundImageFix"/>
<feColorMatrix in="SourceAlpha" type="matrix" values="0 0 0 0 0 0 0 0 0 0 0 0 0 0 0 0 0 0 127 0" result="hardAlpha"/>
<feOffset dy="4"/>
<feGaussianBlur stdDeviation="4"/>
<feComposite in2="hardAlpha" operator="out"/>
<feColorMatrix type="matrix" values="0 0 0 0 0.831373 0 0 0 0 0.807843 0 0 0 0 0.823529 0 0 0 0.15 0"/>
<feBlend mode="normal" in2="BackgroundImageFix" result="effect1_dropShadow_5640_17151"/>
<feBlend mode="normal" in="SourceGraphic" in2="effect1_dropShadow_5640_17151" result="shape"/>
</filter>
</defs>
</svg>
