<svg width="96" height="97" viewBox="0 0 96 97" fill="none" xmlns="http://www.w3.org/2000/svg">
<g filter="url(#filter0_d_3583_66641)">
<g clip-path="url(#clip0_3583_66641)">
<rect x="16" y="8.5" width="64" height="64" rx="32" fill="#ECE9EB"/>
<path d="M64 66.5V62.5C64 60.3783 63.1571 58.3434 61.6569 56.8431C60.1566 55.3429 58.1217 54.5 56 54.5H40C37.8783 54.5 35.8434 55.3429 34.3431 56.8431C32.8429 58.3434 32 60.3783 32 62.5V66.5" stroke="#D4CED2" stroke-width="2" stroke-linecap="round" stroke-linejoin="round"/>
<path d="M48 46.5C52.4183 46.5 56 42.9183 56 38.5C56 34.0817 52.4183 30.5 48 30.5C43.5817 30.5 40 34.0817 40 38.5C40 42.9183 43.5817 46.5 48 46.5Z" stroke="#D4CED2" stroke-width="2" stroke-linecap="round" stroke-linejoin="round"/>
</g>
<rect x="17.5" y="10" width="61" height="61" rx="30.5" stroke="#5B5BD8" stroke-width="3"/>
</g>
<defs>
<filter id="filter0_d_3583_66641" x="0" y="0.5" width="96" height="96" filterUnits="userSpaceOnUse" color-interpolation-filters="sRGB">
<feFlood flood-opacity="0" result="BackgroundImageFix"/>
<feColorMatrix in="SourceAlpha" type="matrix" values="0 0 0 0 0 0 0 0 0 0 0 0 0 0 0 0 0 0 127 0" result="hardAlpha"/>
<feOffset dy="8"/>
<feGaussianBlur stdDeviation="8"/>
<feComposite in2="hardAlpha" operator="out"/>
<feColorMatrix type="matrix" values="0 0 0 0 0.117647 0 0 0 0 0.117647 0 0 0 0 0.196078 0 0 0 0.2 0"/>
<feBlend mode="normal" in2="BackgroundImageFix" result="effect1_dropShadow_3583_66641"/>
<feBlend mode="normal" in="SourceGraphic" in2="effect1_dropShadow_3583_66641" result="shape"/>
</filter>
<clipPath id="clip0_3583_66641">
<rect x="16" y="8.5" width="64" height="64" rx="32" fill="white"/>
</clipPath>
</defs>
</svg>
