<svg width="16" height="16" viewBox="0 0 16 16" fill="none" xmlns="http://www.w3.org/2000/svg">
<g clip-path="url(#clip0_3608_754)">
<path d="M11.3327 14V12.6667C11.3327 11.9594 11.0517 11.2811 10.5516 10.781C10.0515 10.281 9.37326 10 8.66602 10H3.33268C2.62544 10 1.94716 10.281 1.44706 10.781C0.946967 11.2811 0.666016 11.9594 0.666016 12.6667V14" stroke="#5B5BD8" stroke-width="1.5" stroke-linecap="round" stroke-linejoin="round"/>
<path d="M6.00065 7.33333C7.47341 7.33333 8.66732 6.13943 8.66732 4.66667C8.66732 3.19391 7.47341 2 6.00065 2C4.52789 2 3.33398 3.19391 3.33398 4.66667C3.33398 6.13943 4.52789 7.33333 6.00065 7.33333Z" stroke="#5B5BD8" stroke-width="1.5" stroke-linecap="round" stroke-linejoin="round"/>
<path d="M15.334 14V12.6667C15.3335 12.0758 15.1369 11.5019 14.7749 11.0349C14.4129 10.5679 13.9061 10.2344 13.334 10.0867" stroke="#5B5BD8" stroke-width="1.5" stroke-linecap="round" stroke-linejoin="round"/>
<path d="M10.666 2.08667C11.2396 2.23354 11.748 2.56714 12.1111 3.03488C12.4742 3.50262 12.6712 4.07789 12.6712 4.67C12.6712 5.26212 12.4742 5.83739 12.1111 6.30513C11.748 6.77287 11.2396 7.10647 10.666 7.25334" stroke="#5B5BD8" stroke-width="1.5" stroke-linecap="round" stroke-linejoin="round"/>
</g>
<defs>
<clipPath id="clip0_3608_754">
<rect width="16" height="16" fill="white"/>
</clipPath>
</defs>
</svg>
