<svg width="24" height="24" viewBox="0 0 24 24" fill="none" xmlns="http://www.w3.org/2000/svg">
<path d="M24 11.3333C24.0046 13.0931 23.5934 14.8292 22.8 16.4C21.8592 18.2823 20.413 19.8655 18.6233 20.9724C16.8335 22.0792 14.771 22.6658 12.6667 22.6666C10.9068 22.6712 9.17082 22.2601 7.6 21.4666L0 24L2.53333 16.4C1.73991 14.8292 1.32875 13.0931 1.33333 11.3333C1.33415 9.22899 1.92082 7.16645 3.02763 5.37671C4.13444 3.58698 5.71767 2.14073 7.6 1.19998C9.17082 0.406552 10.9068 -0.00461139 12.6667 -2.3051e-05H13.3333C16.1125 0.153299 18.7374 1.32633 20.7055 3.29446C22.6737 5.26259 23.8467 7.88751 24 10.6666V11.3333Z" fill="#D4CED2"/>
</svg>
